<svg xmlns="http://www.w3.org/2000/svg" viewBox="0 0 64 64" aria-labelledby="title"
aria-describedby="desc" role="img" xmlns:xlink="http://www.w3.org/1999/xlink">
  <title>Chats</title>
  <desc>A solid styled icon from Orion Icon Library.</desc>
  <path data-name="layer2"
  d="M50 24.7C50 14.1 39.3 5.5 26 5.5S2 14.1 2 24.7C2 30.1 4.8 35 9.3 38.4L4.1 49.3l15.3-6.1a29.6 29.6 0 0 0 6.6.7c13.3 0 24-8.6 24-19.2z"
  fill="#bfbfbf"></path>
  <path data-name="layer1" d="M62 41.1c0-5.1-3.4-9.5-8.6-11.8-2.3 9.5-11.7 16.9-23.3 18.3 2.9 4.2 8.5 7.1 14.9 7.1a21 21 0 0 0 4.7-.5L60 58.5l-3.1-7.7a12.4 12.4 0 0 0 5.1-9.7z"
  fill="#bfbfbf"></path>
</svg>